<svg width="776" height="794" viewBox="0 0 776 794" fill="none" xmlns="http://www.w3.org/2000/svg">
<path d="M248.326 509.458C253.261 546 256.576 579.887 258.017 613.892C258.328 662.859 262.785 717.408 227.5 763.629C228.672 761.324 233.587 758.367 236.618 758.579C239.602 758.56 240.683 759.241 241.381 759.51C242.615 760.13 242.522 760.209 242.486 760.145C242.279 759.974 241.602 759.299 240.93 758.531C239.565 756.983 238.035 755.02 236.507 752.958C233.514 748.915 230.407 744.356 227.344 739.74C207.353 709.069 193.412 685.066 180.858 664.273C152.519 616.708 132.439 583.608 86.3969 497.722C50.2809 430.304 13.3426 363.123 -17.6251 307.32C-43.4783 260.726 -65.6699 222.04 -79.9004 197.368C-84.4244 189.448 -88.6042 182.734 -91.7979 176.942C-109.856 147.019 -123.14 133.644 -160.86 109.739C-165.114 106.798 -172.03 108.632 -174.705 111.529C-177.773 114.351 -179.395 117.652 -180.47 121.094C-182.756 128.606 -184.375 137.147 -184.83 146.552C-185.752 172.232 -179.798 193.304 -178.639 212.806C-175.009 258.449 -175.382 297.1 -171.311 342.929C-170.625 350.347 -170.245 358.124 -169.994 366.144C-169.214 388.304 -170.164 423.912 -171.615 465.452C-173.426 497.665 -174.954 542.297 -198.822 565.217C-233.447 545.936 -261.77 501.717 -285.403 473.386C-300.518 453.914 -313.136 436.775 -322.323 423.612C-348.448 386.708 -373.397 348.044 -394.601 306.745C-394.641 306.701 -394.765 306.577 -394.808 306.537C-395.851 305.616 -396.969 304.575 -398.736 303.666C-400.413 302.708 -403.443 302.374 -405.465 303.353C-409.403 305.282 -410.719 307.915 -412.257 310.202C-415.098 314.936 -416.983 319.609 -418.826 324.309C-428.997 352.033 -435.594 377.676 -441.635 398.241C-446.737 416.048 -450.52 430.112 -453.347 440.922C-454.543 445.502 -454.861 447.686 -454.565 447.776C-454.565 447.776 -454.565 447.776 -454.564 447.776C-454.194 447.882 -452.873 444.74 -451.106 438.924C-442.645 412.101 -431.493 371.743 -413.193 326.611C-412.277 324.527 -411.334 322.484 -410.327 320.474C-408.52 316.893 -406.526 313.326 -404.395 311.109C-403.879 310.578 -403.352 310.171 -402.991 309.999C-402.608 309.824 -402.578 309.882 -402.482 309.905C-402.274 309.893 -401.012 310.752 -399.843 311.946L-400.048 311.74C-369.591 375.699 -354.489 393.775 -291.026 477.804C-287.825 481.946 -284.544 486.175 -281.092 490.594C-268.041 507.285 -255.654 522.767 -243.17 537.21C-236.911 544.424 -230.653 551.381 -223.988 557.959C-220.652 561.232 -217.187 564.46 -213.349 567.442C-211.404 568.937 -209.426 570.356 -206.986 571.672C-204.52 572.799 -201.839 574.71 -196.474 573.606C-161.348 542.656 -165.244 504.358 -161.085 465.859C-159.663 429.241 -156.452 389.618 -159.387 342.05C-159.832 336.701 -160.229 331.25 -160.585 325.689C-163.167 280.279 -163.154 244.65 -165.413 211.764C-167.3 180.655 -176.058 153.125 -166.762 125.247C-166.323 123.856 -165.494 122.623 -165.112 122.351C-164.948 122.203 -164.986 122.415 -165.748 122.631C-166.486 122.883 -167.897 122.621 -168.342 122.308C-146.762 135.772 -124.219 155.235 -107.174 185.395C-92.5037 209.638 -76.6299 234.98 -58.4585 266.159C-48.2884 283.472 -39.1375 299.473 -30.6916 314.479C51.5309 460.926 62.5929 497.064 157.511 670.111C158.557 671.994 159.591 673.851 160.611 675.68C170.325 693.075 180.282 710.557 190.929 728.311C196.234 737.137 201.702 746.038 207.552 754.938C210.492 759.396 213.477 763.803 216.84 768.323C218.495 770.534 220.294 772.865 222.432 775.262C223.602 776.55 224.638 777.692 226.522 779.289C227.556 780.109 228.502 780.973 230.986 782.155C232.272 782.679 234.049 783.576 237.711 783.466C241.352 783.583 246.679 780.295 248.185 777.503C285.375 729.541 281.273 665.557 278.24 612.511C273.484 553.529 265.154 497.35 258.938 446.371C253.061 391.777 238.473 344.345 228.879 307.042C226.971 299.741 225.137 292.756 223.424 286.165C212.657 243.853 199.513 196.527 191.7 145.827C188.737 124.178 184.877 102.013 181.02 79.6515C177.797 58.1911 171.52 31.6452 183.016 21.5174C183.494 21.0265 184.358 20.5462 184.895 20.4229C185.16 20.3522 185.32 20.3621 185.265 20.3608C185.22 20.361 184.927 20.3139 184.61 20.1313C221.196 53.2763 256.418 105.608 289.461 154.203C293.118 159.679 296.789 165.234 300.429 170.793C340.218 231.819 380.975 300.604 416.778 374.375C449.934 442.433 476.338 515.899 505.781 587.887C525.593 635.535 546.8 682.104 571.35 725.786C574.622 731.549 578.033 737.364 581.625 743.153C593.234 759.97 601.284 778.701 626.116 791.869C628.043 792.51 630.197 793.343 633.989 793.048C637.884 793.008 642.86 789.066 643.99 786.234C646.583 780.647 646.17 777.816 646.507 774.732C647.182 754.982 643.53 737.802 640.81 719.668C632.561 669.874 621.78 619.007 607.505 570.093C592.563 519.044 573.719 470.602 556.96 426.138C546.732 398.285 537.585 370.927 526.857 346.995C513.326 315.874 500.65 288.639 490.17 266.225C481.203 247.113 473.194 230.301 465.824 215.173C457.752 198.05 448.682 182.544 443.59 169.303C443.25 167.789 443.393 166.226 443.885 165.396C444.126 164.981 444.357 164.802 444.613 164.703C444.869 164.604 445.286 164.578 445.852 164.74C457.478 168.378 467.328 176.405 476.845 184.221C505.803 208.686 533.409 236.377 574.614 279.667C577.322 282.521 580.067 285.418 582.908 288.419C621.674 329.358 670.862 379.458 717.37 427.145C730.882 441.061 744.121 454.738 756.528 468.271C784.98 500.839 780.362 492.119 752.072 458.721C741.3 446.347 730.743 434.865 720.669 424.032C691.572 392.847 667.032 367.536 651.005 349.048C626.906 321.295 610.478 302.511 590.528 281.127C574.666 264.169 556.603 245.607 529.78 220.474C511.776 203.676 496.471 189.519 482.534 177.46C471.764 168.324 461.829 159.805 448.679 155.214C446.685 154.578 443.911 154.272 441.107 155.278C438.296 156.251 436.124 158.433 434.979 160.468C432.693 164.64 432.869 168.259 433.374 171.373C440.623 192.277 447.573 204.028 454.975 220.322C455.7 221.836 456.489 223.475 457.236 225.016C472.19 256.528 478.262 264.043 516.158 351.498C525.285 372.345 533.794 397.895 545.062 430.438C551.985 449.875 559.94 471.316 568.228 495.413C577.713 522.952 586.057 549.17 592.958 574.223C607.925 629.097 616.888 678.523 623.537 722.361C626.127 740.74 629.16 758.912 628.285 773.515C628.195 774.744 628.079 775.882 627.935 776.729C627.823 777.548 627.515 778.161 627.813 777.509C627.978 777.198 628.453 776.444 629.421 775.76C630.376 775.065 631.584 774.741 632.207 774.697C632.86 774.641 633.059 774.711 633.048 774.698C633.035 774.693 632.824 774.636 632.536 774.524C619.811 767.93 607.312 747.985 598.152 733.087C577.371 697.823 562.817 665.991 550.298 638.486C542.98 622.211 534.293 602.447 524.944 579.978C500.225 520.777 471.376 441.675 434.103 365.96C412.424 321.724 388.52 278.748 365.693 239.575C349.614 212.011 329.38 178.85 305.973 143.289C274.462 97.5837 244.916 47.3763 194.627 2.46115C183.746 -2.95563 174.769 1.46887 168.745 7.05594C156.735 18.3419 155.53 35.6087 156.312 47.5971C157.07 60.2258 159.139 71.7918 161.03 83.1598C164.963 105.854 168.759 127.612 171.65 148.659C180.904 207.219 194.988 255.947 203.372 290.71C205.3 298.392 207.119 305.568 208.81 312.27C227.656 384.492 233.275 405.949 239.604 448.572C241.969 464.877 244.841 483.871 248.326 509.458Z" fill="url(#paint0_linear_34_654)"/>
<defs>
<linearGradient id="paint0_linear_34_654" x1="286.826" y1="39.7041" x2="61.0709" y2="780.258" gradientUnits="userSpaceOnUse">
<stop stop-color="#8B6FE6"/>
<stop offset="1" stop-color="#5F42B9"/>
</linearGradient>
</defs>
</svg>
