<svg width="16" height="16" viewBox="0 0 16 16" fill="none" xmlns="http://www.w3.org/2000/svg">
<path fill-rule="evenodd" clip-rule="evenodd" d="M11.2143 0.5H4.78571C2.41878 0.5 0.5 2.41878 0.5 4.78571V11.2143C0.5 13.5812 2.41878 15.5 4.78571 15.5H11.2143C13.5812 15.5 15.5 13.5812 15.5 11.2143V4.78571C15.5 2.41878 13.5812 0.5 11.2143 0.5Z" stroke="#F6F5FD" stroke-opacity="0.8" stroke-linecap="round" stroke-linejoin="round"/>
<path fill-rule="evenodd" clip-rule="evenodd" d="M7.99944 11.2142C6.22419 11.2142 4.78516 9.77518 4.78516 7.99993C4.78516 6.22468 6.22419 4.78564 7.99944 4.78564C9.77469 4.78564 11.2137 6.22468 11.2137 7.99993C11.2137 8.85236 10.875 9.66997 10.2723 10.2728C9.66948 10.8755 8.85187 11.2142 7.99944 11.2142Z" stroke="#F6F5FD" stroke-opacity="0.8" stroke-linecap="round" stroke-linejoin="round"/>
<path d="M11.4648 3.71436C11.4648 3.26074 11.8325 2.89314 12.2861 2.89307C12.7398 2.89307 13.1074 3.26069 13.1074 3.71436C13.1073 4.16795 12.7397 4.53564 12.2861 4.53564C11.8326 4.53557 11.4649 4.16791 11.4648 3.71436Z" stroke="#F6F5FD" stroke-opacity="0.8" stroke-width="0.5"/>
</svg>
