<svg width="17" height="15" viewBox="0 0 17 15" fill="none" xmlns="http://www.w3.org/2000/svg">
<path opacity="0.8" fill-rule="evenodd" clip-rule="evenodd" d="M16.9673 1.78906C17.2119 0.636263 16.0405 -0.321731 14.9049 0.102389L0.984432 5.30115C-0.283767 5.77477 -0.340275 7.48895 0.894149 8.03962L3.92564 9.39208L5.36776 14.2709C5.44267 14.5243 5.65072 14.7206 5.91466 14.7867C6.17861 14.8527 6.45905 14.779 6.65185 14.5925L8.87328 12.4453L11.9851 14.7012C12.8884 15.356 14.1894 14.8791 14.4163 13.8099L16.9673 1.78906ZM1.53912 6.68886L15.4596 1.49011L12.9086 13.5111L9.26283 10.868C8.95647 10.6459 8.52776 10.6754 8.25696 10.9371L7.30549 11.8568L7.59137 10.3371L13.193 4.92255C13.4656 4.65904 13.4944 4.2412 13.2604 3.94505C13.0264 3.6489 12.6018 3.56583 12.2671 3.75072L4.53107 8.02362L1.53912 6.68886ZM5.47431 9.21609L5.94095 10.7948L6.12011 9.84233C6.14811 9.69349 6.22241 9.5564 6.3331 9.44943L8.0414 7.79824L5.47431 9.21609Z" fill="url(#paint0_linear_34_788)"/>
<defs>
<linearGradient id="paint0_linear_34_788" x1="8.37546" y1="-0.847828" x2="3.70165" y2="15.0082" gradientUnits="userSpaceOnUse">
<stop stop-color="#F6F5FD"/>
<stop offset="1" stop-color="#F6F5FD" stop-opacity="0.8"/>
</linearGradient>
</defs>
</svg>
