<svg xmlns="http://www.w3.org/2000/svg" viewBox="0 0 24 24" fill="none">
  <rect width="24" height="24" rx="12" fill="#7B3FE4"/>
  <path d="M19.17 8.5c.12-.4 0-.7-.57-.7h-1.89c-.48 0-.7.25-.82.53 0 0-.96 2.33-2.31 3.84-.44.44-.64.58-.88.58-.12 0-.3-.14-.3-.54V8.5c0-.48-.14-.7-.54-.7H9.38c-.3 0-.48.22-.48.44 0 .46.69.57.76 1.87v2.82c0 .61-.11.72-.35.72-.64 0-2.2-2.35-3.12-5.03C6 8.15 5.82 8 5.33 8H3.44c-.54 0-.65.25-.65.53 0 .5.64 2.97 3 6.23 1.57 2.24 3.78 3.45 5.79 3.45 1.21 0 1.36-.27 1.36-.74v-1.7c0-.54.11-.65.49-.65.28 0 .76.14 1.88 1.22 1.28 1.28 1.49 1.85 2.21 1.85h1.89c.54 0 .81-.27.65-.8-.17-.53-.78-1.3-1.59-2.21-.44-.52-1.1-1.08-1.3-1.36-.28-.36-.2-.52 0-.84 0 0 2.28-3.22 2.52-4.31z" fill="#FFFFFF"/>
</svg>
